<mxfile host="app.diagrams.net" agent="Mozilla/5.0 (Windows NT 10.0; Win64; x64) AppleWebKit/537.36 (KHTML, like Gecko) Chrome/126.0.0.0 Safari/537.36" version="24.7.5">
  <diagram name="Page-1" id="iG_QuagarVAqDcdbW2Rk">
    <mxGraphModel dx="794" dy="412" grid="1" gridSize="10" guides="1" tooltips="1" connect="1" arrows="1" fold="1" page="1" pageScale="1" pageWidth="850" pageHeight="1100" math="0" shadow="0">
      <root>
        <mxCell id="0" />
        <mxCell id="1" parent="0" />
        <mxCell id="9xvtGW5jpFJtdQ_3aKCY-1" value="Is First Request?" style="rhombus;whiteSpace=wrap;html=1;" vertex="1" parent="1">
          <mxGeometry x="140" y="60" width="90" height="100" as="geometry" />
        </mxCell>
        <mxCell id="9xvtGW5jpFJtdQ_3aKCY-2" value="Fill Route" style="whiteSpace=wrap;html=1;aspect=fixed;" vertex="1" parent="1">
          <mxGeometry x="290" y="70" width="80" height="80" as="geometry" />
        </mxCell>
        <mxCell id="9xvtGW5jpFJtdQ_3aKCY-3" value="Route Table" style="whiteSpace=wrap;html=1;aspect=fixed;" vertex="1" parent="1">
          <mxGeometry x="385" y="70" width="80" height="80" as="geometry" />
        </mxCell>
        <mxCell id="9xvtGW5jpFJtdQ_3aKCY-7" value="" style="edgeStyle=orthogonalEdgeStyle;rounded=0;orthogonalLoop=1;jettySize=auto;html=1;" edge="1" parent="1" source="9xvtGW5jpFJtdQ_3aKCY-4" target="9xvtGW5jpFJtdQ_3aKCY-6">
          <mxGeometry relative="1" as="geometry" />
        </mxCell>
        <mxCell id="9xvtGW5jpFJtdQ_3aKCY-4" value="URL Routing Module" style="whiteSpace=wrap;html=1;aspect=fixed;" vertex="1" parent="1">
          <mxGeometry x="145" y="190" width="80" height="80" as="geometry" />
        </mxCell>
        <mxCell id="9xvtGW5jpFJtdQ_3aKCY-5" value="Fetch Route" style="whiteSpace=wrap;html=1;aspect=fixed;" vertex="1" parent="1">
          <mxGeometry x="290" y="190" width="80" height="80" as="geometry" />
        </mxCell>
        <mxCell id="9xvtGW5jpFJtdQ_3aKCY-9" value="" style="edgeStyle=orthogonalEdgeStyle;rounded=0;orthogonalLoop=1;jettySize=auto;html=1;" edge="1" parent="1" source="9xvtGW5jpFJtdQ_3aKCY-6" target="9xvtGW5jpFJtdQ_3aKCY-8">
          <mxGeometry relative="1" as="geometry" />
        </mxCell>
        <mxCell id="9xvtGW5jpFJtdQ_3aKCY-6" value="Routing Data Object" style="whiteSpace=wrap;html=1;aspect=fixed;" vertex="1" parent="1">
          <mxGeometry x="145" y="297" width="80" height="80" as="geometry" />
        </mxCell>
        <mxCell id="9xvtGW5jpFJtdQ_3aKCY-11" value="" style="edgeStyle=orthogonalEdgeStyle;rounded=0;orthogonalLoop=1;jettySize=auto;html=1;" edge="1" parent="1" source="9xvtGW5jpFJtdQ_3aKCY-8" target="9xvtGW5jpFJtdQ_3aKCY-10">
          <mxGeometry relative="1" as="geometry" />
        </mxCell>
        <mxCell id="9xvtGW5jpFJtdQ_3aKCY-8" value="Request Content Created" style="whiteSpace=wrap;html=1;aspect=fixed;" vertex="1" parent="1">
          <mxGeometry x="145" y="406" width="80" height="80" as="geometry" />
        </mxCell>
        <mxCell id="9xvtGW5jpFJtdQ_3aKCY-15" value="" style="edgeStyle=orthogonalEdgeStyle;rounded=0;orthogonalLoop=1;jettySize=auto;html=1;" edge="1" parent="1" source="9xvtGW5jpFJtdQ_3aKCY-10" target="9xvtGW5jpFJtdQ_3aKCY-14">
          <mxGeometry relative="1" as="geometry" />
        </mxCell>
        <mxCell id="9xvtGW5jpFJtdQ_3aKCY-10" value="MVC Handler" style="whiteSpace=wrap;html=1;aspect=fixed;" vertex="1" parent="1">
          <mxGeometry x="305" y="406" width="80" height="80" as="geometry" />
        </mxCell>
        <mxCell id="9xvtGW5jpFJtdQ_3aKCY-14" value="Controller Instance Created" style="whiteSpace=wrap;html=1;aspect=fixed;" vertex="1" parent="1">
          <mxGeometry x="465" y="406" width="80" height="80" as="geometry" />
        </mxCell>
      </root>
    </mxGraphModel>
  </diagram>
</mxfile>
